<mxfile host="Electron" modified="2024-01-10T15:22:43.303Z" agent="Mozilla/5.0 (Windows NT 10.0; Win64; x64) AppleWebKit/537.36 (KHTML, like Gecko) draw.io/22.1.16 Chrome/120.0.6099.109 Electron/28.1.0 Safari/537.36" etag="iz7Iv9oBMFftaMs4dN2X" version="22.1.16" type="device">
  <diagram name="Page-1" id="MDXd1sd3QAMR7ODp--8f">
    <mxGraphModel dx="1098" dy="988" grid="1" gridSize="10" guides="1" tooltips="1" connect="1" arrows="1" fold="1" page="1" pageScale="1" pageWidth="850" pageHeight="1100" math="0" shadow="0">
      <root>
        <mxCell id="0" />
        <mxCell id="1" parent="0" />
        <mxCell id="MqpLqy_DTzzboS0R3c-Q-1" value="ECS WebApi" style="sketch=0;points=[[0,0,0],[0.25,0,0],[0.5,0,0],[0.75,0,0],[1,0,0],[0,1,0],[0.25,1,0],[0.5,1,0],[0.75,1,0],[1,1,0],[0,0.25,0],[0,0.5,0],[0,0.75,0],[1,0.25,0],[1,0.5,0],[1,0.75,0]];outlineConnect=0;fontColor=#232F3E;fillColor=#ED7100;strokeColor=#ffffff;dashed=0;verticalLabelPosition=middle;verticalAlign=middle;align=right;html=1;fontSize=12;fontStyle=0;aspect=fixed;shape=mxgraph.aws4.resourceIcon;resIcon=mxgraph.aws4.ecs;spacingRight=5;labelPosition=left;" vertex="1" parent="1">
          <mxGeometry x="190" y="370" width="78" height="78" as="geometry" />
        </mxCell>
        <mxCell id="MqpLqy_DTzzboS0R3c-Q-2" value="HTTPCode_Target_5XX_Count" style="sketch=0;outlineConnect=0;fontColor=#232F3E;gradientColor=none;fillColor=#232F3D;strokeColor=none;dashed=0;verticalLabelPosition=bottom;verticalAlign=top;align=center;html=1;fontSize=12;fontStyle=0;aspect=fixed;pointerEvents=1;shape=mxgraph.aws4.metrics;" vertex="1" parent="1">
          <mxGeometry x="440.04" y="460" width="32.96" height="30" as="geometry" />
        </mxCell>
        <mxCell id="MqpLqy_DTzzboS0R3c-Q-3" value="Amazon CloudWatch" style="sketch=0;points=[[0,0,0],[0.25,0,0],[0.5,0,0],[0.75,0,0],[1,0,0],[0,1,0],[0.25,1,0],[0.5,1,0],[0.75,1,0],[1,1,0],[0,0.25,0],[0,0.5,0],[0,0.75,0],[1,0.25,0],[1,0.5,0],[1,0.75,0]];points=[[0,0,0],[0.25,0,0],[0.5,0,0],[0.75,0,0],[1,0,0],[0,1,0],[0.25,1,0],[0.5,1,0],[0.75,1,0],[1,1,0],[0,0.25,0],[0,0.5,0],[0,0.75,0],[1,0.25,0],[1,0.5,0],[1,0.75,0]];outlineConnect=0;fontColor=#232F3E;fillColor=#E7157B;strokeColor=#ffffff;dashed=0;verticalLabelPosition=middle;verticalAlign=middle;align=left;html=1;fontSize=12;fontStyle=0;aspect=fixed;shape=mxgraph.aws4.resourceIcon;resIcon=mxgraph.aws4.cloudwatch_2;labelPosition=right;spacingLeft=5;" vertex="1" parent="1">
          <mxGeometry x="650" y="370" width="78" height="78" as="geometry" />
        </mxCell>
        <mxCell id="MqpLqy_DTzzboS0R3c-Q-4" style="edgeStyle=orthogonalEdgeStyle;rounded=0;orthogonalLoop=1;jettySize=auto;html=1;entryX=0;entryY=0.5;entryDx=0;entryDy=0;entryPerimeter=0;strokeColor=#00FF00;strokeWidth=2;" edge="1" parent="1" source="MqpLqy_DTzzboS0R3c-Q-1" target="MqpLqy_DTzzboS0R3c-Q-3">
          <mxGeometry relative="1" as="geometry" />
        </mxCell>
        <mxCell id="MqpLqy_DTzzboS0R3c-Q-5" style="edgeStyle=orthogonalEdgeStyle;rounded=0;orthogonalLoop=1;jettySize=auto;html=1;entryX=0.5;entryY=1;entryDx=0;entryDy=0;entryPerimeter=0;fontColor=#000000;strokeColor=#FF0000;strokeWidth=2;" edge="1" parent="1" source="MqpLqy_DTzzboS0R3c-Q-1" target="MqpLqy_DTzzboS0R3c-Q-3">
          <mxGeometry relative="1" as="geometry">
            <Array as="points">
              <mxPoint x="229" y="520" />
              <mxPoint x="689" y="520" />
            </Array>
          </mxGeometry>
        </mxCell>
        <mxCell id="MqpLqy_DTzzboS0R3c-Q-6" style="edgeStyle=orthogonalEdgeStyle;rounded=0;orthogonalLoop=1;jettySize=auto;html=1;entryX=0.5;entryY=0;entryDx=0;entryDy=0;entryPerimeter=0;strokeWidth=2;" edge="1" parent="1" source="MqpLqy_DTzzboS0R3c-Q-1" target="MqpLqy_DTzzboS0R3c-Q-3">
          <mxGeometry relative="1" as="geometry">
            <Array as="points">
              <mxPoint x="229" y="300" />
              <mxPoint x="689" y="300" />
            </Array>
          </mxGeometry>
        </mxCell>
        <mxCell id="MqpLqy_DTzzboS0R3c-Q-8" value="AspNetExecutionTime" style="sketch=0;outlineConnect=0;fontColor=#232F3E;gradientColor=none;fillColor=#232F3D;strokeColor=none;dashed=0;verticalLabelPosition=bottom;verticalAlign=top;align=center;html=1;fontSize=12;fontStyle=0;aspect=fixed;pointerEvents=1;shape=mxgraph.aws4.metrics;" vertex="1" parent="1">
          <mxGeometry x="440.04" y="240" width="32.96" height="30" as="geometry" />
        </mxCell>
        <mxCell id="MqpLqy_DTzzboS0R3c-Q-9" value="HTTPCode_Target_2XX_Count" style="sketch=0;outlineConnect=0;fontColor=#232F3E;gradientColor=none;fillColor=#232F3D;strokeColor=none;dashed=0;verticalLabelPosition=bottom;verticalAlign=top;align=center;html=1;fontSize=12;fontStyle=0;aspect=fixed;pointerEvents=1;shape=mxgraph.aws4.metrics;" vertex="1" parent="1">
          <mxGeometry x="440.04" y="350" width="32.96" height="30" as="geometry" />
        </mxCell>
      </root>
    </mxGraphModel>
  </diagram>
</mxfile>
